<?xml version="1.0" encoding="UTF-8"?>
<svg id="Calque_2" data-name="Calque 2" xmlns="http://www.w3.org/2000/svg" viewBox="0 0 317.5 317.5">
  <defs>
    <style>
      .cls-1 {
        fill: none;
        stroke: #fff;
        stroke-miterlimit: 10;
        stroke-width: 5px;
      }
    </style>
  </defs>
  <g id="Calque_1-2" data-name="Calque 1">
    <g>
      <path class="cls-1" d="M237.46,146.52h-4.7c-.04-.2-.12-.36-.24-.52-31.53-4.54-56.49-29.5-61.03-61.07-14.93-6.65-31.41-10.31-48.81-10.31C56.32,74.63,2.5,128.41,2.5,194.81s53.82,120.19,120.19,120.19c27.11,0,52.11-8.96,72.25-24.13v23.93h47.93v-168.08c-1.83,0-3.62-.08-5.41-.2ZM122.69,252.85c-31.17,0-56.45-25.28-56.45-56.45s25.28-56.45,56.45-56.45,56.45,25.28,56.45,56.45-25.28,56.45-56.45,56.45Z"/>
      <path class="cls-1" d="M315,74.61c0,19.91-8.07,37.94-21.12,50.99l-35.24-35.24c5.07-4.4,8.28-10.9,8.28-18.15,0-13.28-10.77-24.04-24.04-24.04-7.25,0-13.75,3.21-18.15,8.29l-15.84-15.85-17-16.99c13.05-13.05,31.08-21.12,50.99-21.12,39.84,0,72.12,32.29,72.12,72.11Z"/>
    </g>
  </g>
</svg>